<svg viewBox="0 0 19 17" fill="none" xmlns="http://www.w3.org/2000/svg">
    <path
        d="M6.57569 12.4321L6.79946 12.2083C6.8634 12.1337 6.89537 12.0458 6.89537 11.9445C6.89537 11.8433 6.8634 11.7554 6.79946 11.6808L4.17808 9.07541H15.9104C16.0169 9.07541 16.1075 9.03812 16.1821 8.96353C16.2567 8.88893 16.294 8.79836 16.294 8.6918V8.3881C16.294 8.28154 16.2567 8.19097 16.1821 8.11637C16.1075 8.04178 16.0169 8.00449 15.9104 8.00449H4.17808L6.79946 5.39909C6.8634 5.3245 6.89537 5.23659 6.89537 5.13535C6.89537 5.03412 6.8634 4.94621 6.79946 4.87162L6.57569 4.64784C6.50109 4.57325 6.41052 4.53595 6.30396 4.53595C6.1974 4.53595 6.11215 4.57325 6.04821 4.64784L2.40386 8.27621C2.32927 8.35081 2.29197 8.43872 2.29197 8.53995C2.29197 8.64118 2.32927 8.72909 2.40386 8.80369L6.04821 12.4321C6.11215 12.5066 6.1974 12.5439 6.30396 12.5439C6.41052 12.5439 6.50109 12.5066 6.57569 12.4321Z"
        fill="white" />
</svg>