<svg  viewBox="0 0 15 9" fill="none" xmlns="http://www.w3.org/2000/svg">
<path d="M10.5437 0.647841L10.3201 0.871618C10.2455 0.94621 10.2082 1.03412 10.2082 1.13535C10.2082 1.23659 10.2455 1.3245 10.3201 1.39909L12.94 4.00449H1.19827C1.10242 4.00449 1.01722 4.04178 0.942667 4.11637C0.868116 4.19097 0.830841 4.28154 0.830841 4.3881V4.6918C0.830841 4.79836 0.868116 4.88893 0.942667 4.96353C1.01722 5.03812 1.10242 5.07541 1.19827 5.07541H12.94L10.3201 7.68081C10.2455 7.7554 10.2082 7.84331 10.2082 7.94454C10.2082 8.04578 10.2455 8.13369 10.3201 8.20828L10.5437 8.43206C10.6183 8.50665 10.7061 8.54395 10.8073 8.54395C10.9085 8.54395 10.9963 8.50665 11.0709 8.43206L14.7132 4.80369C14.7878 4.72909 14.8251 4.64118 14.8251 4.53995C14.8251 4.43872 14.7878 4.35081 14.7132 4.27621L11.0709 0.647841C10.9963 0.573249 10.9085 0.535954 10.8073 0.535954C10.7061 0.535954 10.6183 0.573249 10.5437 0.647841Z" fill="white"/>
</svg>
