<svg width="63" height="21" viewBox="0 0 63 21" fill="none" xmlns="http://www.w3.org/2000/svg">
<path d="M61.5849 2.39775C61.5316 2.09139 61.3851 1.87161 61.1454 1.73841C60.9056 1.60521 60.6625 1.59189 60.4161 1.69845C60.1697 1.80501 60.0198 2.00481 59.9665 2.29785C59.5803 3.37677 59.0275 4.30917 58.3082 5.09506C57.5889 5.88094 56.7564 6.45703 55.8107 6.82333C54.865 7.18963 53.886 7.31284 52.8736 7.19296C51.6615 7.19296 50.4894 6.90658 49.3572 6.33382C48.2649 5.77438 47.3059 5.00848 46.48 4.03611C45.8007 3.11703 45.0182 2.35446 44.1324 1.7484C43.2466 1.14234 42.3042 0.719431 41.3052 0.479671C39.9066 0.10671 38.4414 0.0800705 36.9096 0.39975C35.6708 0.67947 34.5686 1.17897 33.6029 1.89825C32.6372 2.61753 31.888 3.48999 31.3552 4.51563C30.8224 3.50331 30.0731 2.63418 29.1074 1.90824C28.1417 1.1823 27.0395 0.67947 25.8007 0.39975C24.2556 0.0800705 22.7904 0.10671 21.4051 0.479671C20.4061 0.719431 19.4471 1.15899 18.528 1.79835C17.6089 2.43771 16.8097 3.21027 16.1304 4.11603C15.2646 5.0884 14.2922 5.84764 13.2133 6.39376C12.1344 6.93988 11.0022 7.23292 9.81669 7.27288C8.84433 7.40608 7.88529 7.2862 6.93957 6.91324C5.99385 6.54028 5.16801 5.96752 4.46205 5.19496C3.72945 4.39575 3.18999 3.46335 2.84367 2.39775C2.73711 2.14467 2.61057 1.95819 2.46405 1.83831C2.31753 1.71843 2.15769 1.68513 1.98452 1.73841C1.78472 1.73841 1.60157 1.80834 1.43507 1.9482C1.26857 2.08806 1.15868 2.27121 1.1054 2.49765C0.732444 4.69545 0.732444 6.89326 1.1054 9.09106C1.45172 11.1157 2.28423 12.9206 3.60291 14.5056C4.92159 16.0907 6.67317 17.3828 8.85765 18.3818C9.11073 18.475 9.34383 18.4717 9.55695 18.3718C9.77007 18.2719 9.92325 18.0821 10.0165 17.8023C10.1097 17.5626 10.1131 17.3162 10.0265 17.0631C9.9399 16.81 9.77673 16.6102 9.53697 16.4637C5.63421 14.6122 3.40311 11.9948 2.84367 8.61154C2.64387 7.66582 2.54397 6.71344 2.54397 5.7544C3.46305 7.00648 4.58193 7.93888 5.90061 8.5516C7.21929 9.16432 8.59125 9.37744 10.0165 9.19096C11.4151 9.09772 12.7571 8.72143 14.0425 8.06209C15.3278 7.40275 16.47 6.50698 17.469 5.37478L17.5689 5.27488C18.1683 4.52895 18.8144 3.91623 19.507 3.43671C20.2263 2.93055 20.9855 2.58423 21.7847 2.39775C23.0235 2.11803 24.2689 2.11803 25.521 2.39775C26.4401 2.62419 27.2692 3.00381 28.0085 3.53661C28.7478 4.06941 29.3372 4.70212 29.7767 5.43472C30.2163 6.16732 30.4561 6.93988 30.496 7.7524V8.33182C30.4028 9.33082 30.1464 10.2699 29.7268 11.149C29.3072 12.0281 28.7644 12.7807 28.0984 13.4067C26.9529 14.7387 25.4877 15.8243 23.7028 16.6635C23.4231 16.7834 23.2566 16.9998 23.2033 17.3128C23.15 17.6259 23.2066 17.9156 23.3731 18.182C23.5396 18.4484 23.7761 18.5816 24.0824 18.5816C24.2023 18.5816 24.2955 18.5483 24.3621 18.4817C26.2403 17.5892 27.8986 16.3771 29.3372 14.8453C30.203 14.0727 30.8756 13.1137 31.3552 11.9682C31.8347 13.0205 32.474 13.9462 33.2732 14.7454C33.3132 14.8253 33.4597 14.9985 33.7128 15.2649C34.0724 15.6378 34.4854 16.0108 34.9516 16.3838C35.5643 16.8766 36.2303 17.3361 36.9496 17.7624C37.842 18.2819 38.7744 18.7214 39.7468 19.0811C40.8923 19.5073 42.0844 19.8137 43.3232 20.0002C44.4687 20.1334 45.3279 20.2 45.9006 20.2C47.872 20.2 49.9099 19.847 52.0145 19.141C53.4797 18.6348 54.7984 18.0021 55.9705 17.2429C57.4091 16.3238 58.5813 15.2449 59.487 14.0061C60.5659 12.5543 61.2652 10.9159 61.5849 9.09106C61.9712 6.86662 61.9712 4.63552 61.5849 2.39775ZM59.8666 8.71144C59.6002 10.2432 59.0008 11.6219 58.0684 12.8473C57.2692 13.8863 56.2436 14.8053 54.9915 15.6045C53.9659 16.2572 52.8137 16.8033 51.535 17.2429C48.8843 18.2153 46.2403 18.4683 43.6029 18.0021C42.4973 17.8157 41.4251 17.5359 40.3861 17.163C39.507 16.83 38.6678 16.4304 37.8686 15.9642C37.2293 15.5912 36.6299 15.1783 36.0704 14.7254C35.6442 14.3924 35.2779 14.0661 34.9715 13.7464C34.7318 13.4933 34.6119 13.3468 34.6119 13.3068C33.8926 12.6408 33.3298 11.8083 32.9236 10.8093C32.5173 9.81034 32.3142 8.76472 32.3142 7.67248C32.3408 6.84664 32.5739 6.06742 33.0135 5.33482C33.4531 4.60221 34.0458 3.96951 34.7917 3.43671C35.5376 2.90391 36.3701 2.52429 37.2892 2.29785C38.0485 2.17797 38.6212 2.11803 39.0075 2.11803C39.6735 2.11803 40.3462 2.21127 41.0255 2.39775C42.6772 2.86395 44.1091 3.85629 45.3212 5.37478C46.3202 6.50698 47.4657 7.40275 48.7578 8.06209C50.0498 8.72143 51.3951 9.09772 52.7937 9.19096C54.219 9.37744 55.5876 9.16432 56.8996 8.5516C58.2116 7.93888 59.3272 7.00648 60.2463 5.7544C60.1397 7.03312 60.0132 8.0188 59.8666 8.71144ZM18.0485 18.182C17.2493 18.2885 16.4501 18.2885 15.6509 18.182C15.3845 18.1686 15.1713 18.2552 15.0115 18.4417C14.8517 18.6282 14.7651 18.858 14.7518 19.131C14.7384 19.4041 14.8017 19.6438 14.9416 19.8503C15.0814 20.0568 15.2912 20.1733 15.5709 20.2H16.8097C17.4491 20.2 17.8953 20.1667 18.1484 20.1001C18.4148 20.0867 18.6212 19.9768 18.7677 19.7704C18.9143 19.5639 18.9809 19.3308 18.9675 19.0711C18.9542 18.8113 18.8643 18.5949 18.6978 18.4217C18.5313 18.2486 18.3149 18.1686 18.0485 18.182Z" fill="#DCA44E"/>
</svg>
