<svg width="72" height="65" viewBox="0 0 72 65" fill="none" xmlns="http://www.w3.org/2000/svg">
<path d="M52.7038 47.8007H53.5989C56.7957 47.8007 59.7475 47.0015 62.4541 45.4031C65.1607 43.8047 67.3026 41.6629 68.8797 38.9775C70.4567 36.207 71.2453 33.202 71.2453 29.9626C71.2453 28.4707 70.883 27.0961 70.1584 25.8387C69.4338 24.5813 68.4321 23.5796 67.1534 22.8337C65.8747 22.0878 64.4894 21.7148 62.9975 21.7148H59.3532C59.3958 20.6492 59.4171 19.0508 59.4171 16.9196C59.4171 16.6212 59.2999 16.3442 59.0655 16.0884C58.831 15.8327 58.5433 15.7048 58.2023 15.7048H1.74679C1.4058 15.7048 1.11809 15.8327 0.883654 16.0884C0.649221 16.3442 0.532005 16.6212 0.532005 16.9196C0.532005 23.9952 1.53367 30.9216 3.537 37.6988C5.54033 44.476 8.43877 50.8483 12.2323 56.8157L12.488 57.2633H1.74679C1.4058 57.2633 1.11809 57.3911 0.883654 57.6469C0.649221 57.9026 0.532005 58.1797 0.532005 58.478C0.532005 60.1404 1.10743 61.5576 2.25828 62.7298C3.40913 63.902 4.79441 64.488 6.41412 64.488H53.5989C55.2187 64.488 56.5933 63.902 57.7228 62.7298C58.8523 61.5576 59.4171 60.1404 59.4171 58.478C59.4171 58.1797 59.2999 57.9026 59.0655 57.6469C58.831 57.3911 58.5433 57.2633 58.2023 57.2633H47.3971L47.5889 56.8157C49.3792 54.2583 51.0841 51.2533 52.7038 47.8007ZM59.0974 24.0165H62.9975C64.6172 24.0165 65.9919 24.6026 67.1214 25.7747C68.251 26.9469 68.8157 28.3428 68.8157 29.9626C68.8157 32.7331 68.1444 35.2906 66.8017 37.6349C65.4591 39.9792 63.6262 41.844 61.3032 43.2293C58.9802 44.6146 56.4547 45.3285 53.7268 45.3712L54.6858 42.9416C56.8597 42.6858 58.8523 41.9612 60.6639 40.7678C62.4754 39.5743 63.9033 38.0292 64.9476 36.1324C65.9919 34.2356 66.514 32.179 66.514 29.9626C66.514 28.9822 66.173 28.151 65.491 27.4691C64.8091 26.7871 63.9779 26.4461 62.9975 26.4461H58.7778C58.863 26.1051 58.9483 25.551 59.0335 24.7837L59.0974 24.0165ZM58.5859 28.7478H63.1254C63.4238 28.7478 63.7008 28.8757 63.9566 29.1314C64.2123 29.3871 64.3402 29.6642 64.3402 29.9626C64.3402 31.6675 63.9672 33.2553 63.2213 34.7258C62.4754 36.1963 61.4631 37.4431 60.1844 38.4661C58.9056 39.489 57.4351 40.171 55.7728 40.512C57.0941 35.9512 58.0318 32.0298 58.5859 28.7478ZM56.9236 59.6289C56.6252 60.3109 56.1777 60.865 55.581 61.2912C54.9842 61.7175 54.3235 61.9306 53.5989 61.9306H6.41412C5.64689 61.9306 4.95425 61.7068 4.3362 61.2593C3.71815 60.8117 3.30257 60.2683 3.08945 59.6289H56.9236ZM45.7348 55.537L44.6479 57.1993H15.3652L14.2143 55.537C10.6339 49.9106 7.874 43.9326 5.9346 37.6029C3.99521 31.2733 2.96158 24.7837 2.8337 18.1344H56.9875C56.9449 24.7411 55.9646 31.22 54.0465 37.571C52.1284 43.9219 49.3578 49.9106 45.7348 55.537ZM29.3672 8.41611C29.9213 8.7571 30.2623 9.23662 30.3901 9.85467C30.518 10.4727 30.4115 11.0588 30.0705 11.6129L29.1754 12.508C28.9622 12.7211 28.8557 12.9982 28.8557 13.3392C28.8557 13.6802 28.9622 13.9572 29.1754 14.1704C29.3885 14.3835 29.6655 14.49 30.0065 14.49C30.3475 14.49 30.6246 14.3835 30.8377 14.1704L31.3492 13.5949C32.2443 12.6572 32.6918 11.5596 32.6918 10.3022C32.6918 9.04482 32.2443 7.94725 31.3492 7.00952C31.0508 6.71115 30.8377 6.51934 30.7098 6.43409C30.1557 6.0931 29.8254 5.61358 29.7188 4.99553C29.6123 4.37748 29.7295 3.7914 30.0705 3.23729L30.9016 2.34219C31.1574 2.12906 31.2853 1.85201 31.2853 1.51102C31.2853 1.17002 31.168 0.892967 30.9336 0.679848C30.6992 0.466728 30.4221 0.360168 30.1024 0.360168C29.7828 0.360168 29.495 0.466728 29.2393 0.679848L28.7278 1.25527C27.8327 2.193 27.3852 3.30122 27.3852 4.57995C27.3852 5.85867 27.8327 6.96689 28.7278 7.90462C28.8557 8.16037 29.0688 8.33086 29.3672 8.41611ZM36.4641 8.41611C37.0182 8.7571 37.3485 9.23662 37.4551 9.85467C37.5616 10.4727 37.4444 11.0588 37.1034 11.6129L36.2083 12.508C35.9952 12.7211 35.8886 12.9982 35.8886 13.3392C35.8886 13.6802 36.0059 13.9572 36.2403 14.1704C36.4747 14.3835 36.7518 14.49 37.0715 14.49C37.3911 14.49 37.6575 14.3835 37.8707 14.1704L38.4461 13.5949C39.3412 12.6572 39.7887 11.5596 39.7887 10.3022C39.7887 9.04482 39.3412 7.94725 38.4461 7.00952C38.1477 6.71115 37.9346 6.51934 37.8067 6.43409C37.2526 6.0931 36.9116 5.61358 36.7838 4.99553C36.6559 4.37748 36.7624 3.7914 37.1034 3.23729L37.9985 2.34219C38.2117 2.12906 38.3182 1.85201 38.3182 1.51102C38.3182 1.17002 38.2117 0.892967 37.9985 0.679848C37.7854 0.466728 37.5084 0.360168 37.1674 0.360168C36.8264 0.360168 36.5493 0.466728 36.3362 0.679848L35.7608 1.25527C34.9083 2.193 34.4821 3.30122 34.4821 4.57995C34.4821 5.85867 34.9083 6.96689 35.7608 7.90462C35.9313 8.16037 36.1657 8.33086 36.4641 8.41611ZM22.3342 8.41611C22.8457 8.7571 23.1654 9.23662 23.2932 9.85467C23.4211 10.4727 23.3146 11.0588 22.9736 11.6129L22.0785 12.508C21.8653 12.7211 21.7588 12.9982 21.7588 13.3392C21.7588 13.6802 21.8653 13.9572 22.0785 14.1704C22.2916 14.3835 22.5686 14.49 22.9096 14.49C23.2506 14.49 23.5277 14.3835 23.7408 14.1704L24.3162 13.5949C25.1687 12.6572 25.5949 11.5596 25.5949 10.3022C25.5949 9.04482 25.1687 7.94725 24.3162 7.00952C24.0179 6.71115 23.7834 6.51934 23.6129 6.43409C23.1014 6.0931 22.7818 5.61358 22.6539 4.99553C22.526 4.37748 22.6326 3.7914 22.9736 3.23729L23.2932 2.91761L23.7408 2.34219C23.9539 2.12906 24.0605 1.85201 24.0605 1.51102C24.0605 1.17002 23.9539 0.892967 23.7408 0.679848C23.5277 0.466728 23.2506 0.360168 22.9096 0.360168C22.5686 0.360168 22.2916 0.466728 22.0785 0.679848L21.503 1.25527C20.6506 2.193 20.2243 3.30122 20.2243 4.57995C20.2243 5.85867 20.6506 6.96689 21.503 7.90462C21.8014 8.16037 22.0785 8.33086 22.3342 8.41611ZM11.9126 41.3432C10.6765 38.189 9.65355 34.6938 8.84369 30.8577C8.75845 30.5167 8.57729 30.2609 8.30024 30.0904C8.02318 29.9199 7.73547 29.8773 7.4371 29.9626C7.13873 30.0478 6.9043 30.229 6.7338 30.506C6.56331 30.7831 6.52068 31.0921 6.60593 31.4331V31.561C7.37316 35.0561 8.43877 38.6579 9.80273 42.3662C9.93061 42.5793 10.0904 42.7604 10.2823 42.9096C10.4741 43.0588 10.6978 43.1334 10.9536 43.1334C11.252 43.1334 11.529 43.0162 11.7848 42.7817C12.0405 42.5473 12.1684 42.2596 12.1684 41.9186L11.9126 41.3432ZM13.8946 46.0105C13.8094 45.7121 13.5963 45.5097 13.2553 45.4031C12.9143 45.2966 12.6053 45.3072 12.3282 45.4351C12.0512 45.563 11.8593 45.7867 11.7528 46.1064C11.6462 46.4261 11.6569 46.7351 11.7848 47.0335L12.488 48.3122C12.6585 48.6106 12.8823 48.813 13.1594 48.9196C13.4364 49.0262 13.7135 49.0049 13.9905 48.8557C14.2676 48.7065 14.4594 48.4827 14.566 48.1843C14.6725 47.886 14.6832 47.6089 14.5979 47.3532L13.8946 46.0105Z" fill="#DCA44E"/>
</svg>
