<svg width="127" height="57" viewBox="0 0 127 57" fill="none" xmlns="http://www.w3.org/2000/svg">
    <g clip-path="url(#clip0_2_143)">
        <g clip-path="url(#clip1_2_143)">
            <path
                d="M15.4796 35.4106C15.2622 35.0326 15.1621 34.7392 15.1742 34.5338C15.1759 34.2611 15.2863 33.9211 15.5073 33.5155C15.7541 33.0667 15.8904 32.7336 15.918 32.5144C15.9353 29.1126 15.9526 25.7091 15.9698 22.3055C15.8835 21.3217 15.5608 20.4363 14.9964 19.6407C14.47 18.8985 13.8279 18.3531 13.0668 18.0097C12.5128 17.7767 10.5555 17.6576 7.19687 17.6576C5.67287 17.6576 4.14714 17.6576 2.62314 17.6576C2.02942 17.7922 1.68596 18.2789 1.59448 19.1125C1.59448 19.0832 1.59448 20.0376 1.59275 21.9776C1.59103 24.7287 1.5893 27.4799 1.58758 30.2293C1.58585 32.5628 1.53925 33.9021 1.4495 34.249C1.37183 34.5338 1.10949 34.9497 0.659022 35.5072C0.274138 35.9784 0.0877368 36.4099 0.101544 36.7896C0.101544 37.0347 0.177486 37.2297 0.331094 37.3729C0.369065 37.4109 0.439828 37.4696 0.541658 37.5438C0.643489 37.618 0.721156 37.6819 0.771208 37.7337C1.23203 38.1893 1.50128 39.0368 1.5755 40.2794C1.5755 40.3847 1.57377 41.7258 1.57377 44.3026C1.57377 44.4545 1.56687 44.955 1.55306 45.8076C1.55306 46.5049 1.55133 47.0658 1.55133 47.4904C1.5755 48.8038 1.69631 49.5512 1.91378 49.7324C2.14333 49.943 2.83888 49.8843 4.00044 49.5753C6.42711 48.9281 8.85895 48.3223 11.296 47.7545C12.5283 47.3282 13.5639 46.5722 14.4027 45.4969C15.2553 44.4182 15.742 43.2273 15.8645 41.8932C16.082 39.6788 16.0906 37.8735 15.8921 36.453C15.8594 36.1751 15.7196 35.8282 15.4762 35.4123L15.4796 35.4106ZM10.1137 41.762C9.20069 42.2729 8.23244 42.4679 7.20723 42.3247C7.21931 42.3661 7.152 41.3599 7.00357 39.3025C7.18307 38.9228 7.6974 38.626 8.54656 38.4154C9.41988 38.1997 9.97218 38.248 10.2017 38.5483C10.4451 38.8762 10.414 39.9411 10.1137 41.762ZM10.2259 31.831C10.0447 32.1192 9.53552 32.3125 8.70017 32.4092C7.86481 32.5058 7.35048 32.4333 7.15718 32.1796C6.99149 31.9397 6.91382 31.3235 6.92935 30.3363C6.94316 30.0895 6.96215 29.6891 6.98976 29.135C7.01565 28.6535 7.03118 28.3204 7.03118 28.1323C7.03809 25.842 7.08641 24.4923 7.17616 24.0832C7.47302 23.8209 7.9839 23.6759 8.70534 23.6414C9.44059 23.6069 9.95492 23.7035 10.2518 23.9279C10.3398 24.2765 10.3812 25.5865 10.3726 27.8579C10.3709 28.0978 10.3761 28.4568 10.3881 28.9348C10.4244 29.4802 10.4416 29.8599 10.4416 30.0722C10.4658 30.9732 10.3933 31.5583 10.2242 31.8292L10.2259 31.831ZM33.2534 43.3154C33.5399 43.0358 33.6917 42.4179 33.7125 41.4582C33.7263 41.1666 33.7228 40.7558 33.7004 40.2259C33.6917 39.6339 33.6866 39.2542 33.6883 39.0834C33.7055 36.189 33.7349 34.6667 33.7746 34.5165C33.8402 34.306 34.0939 33.9798 34.5375 33.5483C34.9413 33.1668 35.1433 32.8406 35.145 32.5645C35.1467 32.4195 34.9206 32.1485 34.4719 31.7447C34.0991 31.3978 33.8747 31.0905 33.7988 30.8299C33.7608 30.6746 33.7504 29.1972 33.7677 26.3994C33.7763 24.8789 33.7867 23.3583 33.797 21.8378C33.6986 20.98 33.388 20.2171 32.8616 19.5388C32.3352 18.8605 31.6862 18.3825 30.913 18.1011C29.7014 17.6507 27.4024 17.5298 24.0161 17.7732C22.1935 17.9147 20.8784 18.7535 20.0672 20.3207C19.7013 21.037 19.5011 22.0915 19.4683 23.4792C19.4528 23.9279 19.4493 24.563 19.4579 25.3811C19.4786 26.3425 19.4873 27.0104 19.4855 27.378C19.4838 27.6559 19.4942 28.0753 19.5166 28.6414C19.5511 29.2455 19.5684 29.6856 19.5684 29.9618C19.5753 31.0025 19.4735 31.7826 19.2646 32.3073C19.2129 32.4178 18.985 32.7043 18.5829 33.172C18.2204 33.5828 18.0375 33.9176 18.0375 34.1713C18.0358 34.3318 18.236 34.6149 18.6312 35.0188C19.092 35.4675 19.3596 36.2321 19.4303 37.316C19.4303 37.3557 19.4234 38.4914 19.4113 40.7213C19.4096 40.8939 19.3958 41.277 19.3665 41.8759C19.3371 42.4748 19.3216 42.946 19.3199 43.2877C19.3009 44.4389 19.4389 45.1517 19.7324 45.4244C20.0137 45.6747 20.8111 45.6971 22.1262 45.5073C23.5191 45.2915 24.3665 44.9291 24.6651 44.4079C24.6651 44.3958 24.7376 43.0254 24.8843 40.307C24.8981 40.1258 24.8929 39.8031 24.8705 39.3353C24.8618 38.7761 24.8567 38.3705 24.8584 38.1151C24.8653 37.0968 24.9913 36.4772 25.2381 36.258C25.5367 36.0198 26.0269 35.9025 26.7121 35.9042C27.3455 35.9111 27.8028 35.9922 28.0859 36.1493C28.1342 36.6308 28.1515 38.0012 28.1377 40.2604C28.129 41.7965 28.117 42.5404 28.1049 42.4921C28.1515 43.2722 28.3103 43.7658 28.5795 43.9729C28.8885 44.2128 29.6686 44.2284 30.9251 44.0368C32.1695 43.8607 32.9461 43.626 33.2585 43.3171L33.2534 43.3154ZM28.0635 30.2707C27.8805 30.4847 27.3834 30.6159 26.5688 30.666C25.7542 30.716 25.2588 30.6642 25.0793 30.4985C24.886 30.3104 24.7997 29.7685 24.8187 28.8762C24.8204 28.6345 24.8342 28.2583 24.8653 27.7457C24.8946 27.259 24.9084 26.9155 24.9102 26.7118C24.9188 25.1947 24.9171 24.4888 24.9033 24.5924C24.9464 23.8778 25.1104 23.3998 25.3969 23.1616C25.5643 23.1547 25.8042 23.1357 26.1149 23.0994C26.5291 23.0477 26.7932 23.0218 26.9105 23.0166C27.5319 22.9579 27.9306 23.0408 28.1101 23.26C28.1998 23.3825 28.2378 24.5613 28.224 26.7964C28.2222 26.9586 28.2274 27.2521 28.2378 27.6766C28.2602 28.1375 28.2706 28.4861 28.2706 28.7225C28.2896 29.5683 28.2222 30.0843 28.0669 30.2707H28.0635ZM53.1362 39.9394C53.15 39.6443 53.1448 39.237 53.1206 38.7175C53.1103 38.084 53.1051 37.6992 53.1051 37.5628C53.1085 36.17 53.1137 34.7771 53.1172 33.3843C53.0913 33.248 52.9687 32.9753 52.7495 32.5628C52.5442 32.1831 52.4406 31.9086 52.4406 31.7378C52.4423 31.5117 52.5459 31.2545 52.753 30.9645C52.9739 30.6401 53.0982 30.395 53.1241 30.2241C53.1327 27.347 53.1396 24.4698 53.1482 21.5944C53.0222 20.5088 52.5407 19.6061 51.7019 18.8795C50.8648 18.1667 49.8327 17.7559 48.6056 17.6541C47.1782 17.6541 45.7509 17.6541 44.3218 17.6541C41.6345 17.6541 40.1813 17.6783 39.9621 17.7249C39.3407 17.844 38.9714 18.2271 38.8506 18.8795C38.8247 18.9986 38.8074 19.7149 38.7988 21.0283C38.7867 23.1426 38.7746 25.2534 38.7625 27.3677C38.7522 29.3215 38.7194 30.3812 38.6676 30.5503C38.6279 30.7298 38.3725 31.0629 37.9048 31.5548C37.4888 31.9967 37.2869 32.3367 37.2972 32.5748C37.3093 32.7285 37.5337 33.0046 37.9721 33.4016C38.3587 33.7537 38.583 34.0522 38.6469 34.2956C38.6987 34.4578 38.7159 35.9473 38.6987 38.7658C38.6883 40.4814 38.678 41.2753 38.6659 41.1458C38.7125 42.064 38.8972 42.6008 39.2199 42.7544C39.5703 42.9425 40.3659 42.9512 41.6121 42.7976C42.8444 42.6336 43.5917 42.4369 43.8523 42.1935C44.113 41.9639 44.2579 41.4531 44.289 40.6626C44.3028 40.3951 44.3045 40.0361 44.2942 39.5839C44.2838 38.9712 44.2804 38.6122 44.2804 38.5086C44.2821 38.3809 44.27 38.0754 44.2458 37.5887C44.2217 37.102 44.2113 36.7223 44.2131 36.4427C44.2044 35.471 44.3304 34.8893 44.591 34.7012C44.8637 34.501 45.3763 34.4147 46.1271 34.4458C46.8399 34.4665 47.2559 34.5441 47.3698 34.677C47.4595 34.7875 47.501 36.075 47.4906 38.5414C47.4889 38.6898 47.482 39.0402 47.4664 39.5925C47.4509 40.0292 47.4509 40.3726 47.463 40.6263C47.4992 41.3581 47.6856 41.8155 48.0222 41.9985C48.2293 42.1124 49.0094 42.1193 50.3608 42.0433C51.6346 41.9726 52.3819 41.8604 52.6028 41.6895C52.917 41.4617 53.0947 40.8766 53.1362 39.936V39.9394ZM47.3957 29.2593C47.0315 29.696 46.0788 29.7478 44.5393 29.4129C44.3977 29.1644 44.3321 28.0477 44.3408 26.0663C44.3408 25.9283 44.3373 25.5744 44.327 25.0066C44.3028 24.5544 44.3045 24.2023 44.3321 23.9452C44.3753 23.1788 44.5893 22.7474 44.9776 22.6472C45.3539 22.5489 45.8061 22.5126 46.336 22.5402C46.9176 22.5782 47.28 22.6818 47.4216 22.8509C47.5113 22.9527 47.5527 24.0194 47.5441 26.0491C47.5424 26.1751 47.5545 26.434 47.5804 26.8223C47.6045 27.2469 47.6166 27.5679 47.6149 27.7854C47.6252 28.5776 47.551 29.0677 47.3957 29.2576V29.2593ZM70.9047 32.4074C70.6838 32.0657 70.5785 31.8085 70.5923 31.6411C70.5906 31.415 70.701 31.1475 70.9219 30.8351C71.167 30.4899 71.3034 30.2276 71.3293 30.0481C71.3224 27.2106 71.3155 24.3715 71.3103 21.5323C71.2171 20.7073 70.8857 19.9617 70.3161 19.2955C69.7846 18.6741 69.1373 18.2237 68.3762 17.9423C67.8204 17.7508 65.8632 17.6558 62.5045 17.6558C60.9805 17.6558 59.4548 17.6558 57.9308 17.6558C57.3354 17.7577 56.9936 18.1167 56.9022 18.7363C56.9022 18.7138 56.9004 19.4232 56.8987 20.8644C56.8953 22.9079 56.8918 24.9531 56.8866 26.9966C56.8832 28.7312 56.8366 29.7219 56.7468 29.9704C56.6692 30.1723 56.4016 30.4588 55.9477 30.8282C55.5576 31.1389 55.3695 31.4375 55.3816 31.7188C55.3816 31.9 55.4593 32.0502 55.6146 32.171C55.6526 32.2038 55.7251 32.2538 55.8286 32.3194C55.9322 32.385 56.0098 32.4402 56.0616 32.4851C56.5276 32.87 56.7986 33.5293 56.8745 34.463C56.8745 34.5424 56.8728 35.5383 56.8694 37.4523C56.8694 37.5663 56.8607 37.9356 56.8486 38.5673C56.8469 39.0851 56.8469 39.501 56.8469 39.8169C56.8711 40.7955 56.9936 41.3719 57.2146 41.5463C57.4476 41.743 58.1569 41.8241 59.3409 41.8034C61.8124 41.7603 64.284 41.7586 66.7555 41.7965C68.0051 41.7033 69.051 41.3029 69.8933 40.5815C70.7511 39.8618 71.2361 38.9574 71.35 37.8683C71.5536 36.0561 71.5502 34.5424 71.3396 33.3308C71.2982 33.0926 71.1549 32.7837 70.9081 32.4074H70.9047ZM65.5163 36.7965C64.5947 37.0588 63.6126 37.0554 62.5736 36.7879C62.5874 36.8224 62.5149 36.0302 62.3596 34.4147C62.5408 34.1454 63.0603 33.9815 63.9181 33.9263C64.8 33.8727 65.3592 33.9832 65.5922 34.2542C65.8391 34.5493 65.8149 35.395 65.5163 36.7965ZM65.5905 28.9176C65.4093 29.1299 64.8984 29.2334 64.0544 29.2317C63.2105 29.23 62.6927 29.1247 62.4994 28.9124C62.332 28.7105 62.2543 28.2289 62.2664 27.4661C62.2802 27.2762 62.2992 26.9673 62.325 26.541C62.3509 26.1699 62.363 25.9127 62.363 25.766C62.363 23.9935 62.4096 22.9493 62.4994 22.6352C62.7962 22.4436 63.3071 22.3487 64.0337 22.3487C64.7707 22.3504 65.2885 22.4453 65.5853 22.6369C65.6768 22.9165 65.7217 23.9624 65.7234 25.7695C65.7234 25.9611 65.7303 26.2458 65.7441 26.629C65.7821 27.0674 65.8028 27.3694 65.8028 27.5386C65.8287 28.2565 65.7579 28.7174 65.5905 28.9176ZM89.1133 38.5811C88.9045 38.229 88.3401 37.9995 87.4202 37.8959C87.1216 37.8597 86.7125 37.8251 86.1948 37.7958C85.5855 37.7699 85.2041 37.7527 85.0487 37.7406C84.9055 37.7302 84.5689 37.7216 84.0373 37.7164C83.4799 37.6992 83.038 37.6802 82.7153 37.6577C81.6124 37.5939 80.9376 37.442 80.6908 37.1969C80.4301 36.9397 80.3369 36.491 80.4129 35.8489C80.4767 35.3916 80.5906 34.9601 80.7581 34.5545C81.25 34.3853 82.3511 34.4112 84.0632 34.658C85.5406 34.8807 86.4726 34.7892 86.8593 34.3681C87.1043 34.1144 87.2234 33.4257 87.2165 32.3039C87.2096 31.1699 87.0836 30.4606 86.8351 30.1775C86.6142 29.9186 86.2051 29.7564 85.6097 29.6943C85.5579 29.6804 84.9935 29.6477 83.92 29.6011C83.7905 29.5942 83.5178 29.5942 83.1053 29.6011C82.679 29.5942 82.3476 29.5872 82.1146 29.5769C81.3121 29.5441 80.8254 29.4509 80.6562 29.2956C80.4612 29.104 80.368 28.6224 80.3784 27.851C80.3766 27.6438 80.3887 27.3228 80.4129 26.8844C80.437 26.4702 80.4491 26.182 80.4474 26.0215C80.4457 25.8368 80.4336 25.5382 80.4043 25.1222C80.3628 24.6839 80.3421 24.3663 80.3421 24.1713C80.3266 23.4343 80.4474 22.97 80.7046 22.7767C80.9376 22.5972 81.5175 22.5195 82.4495 22.5454C82.6825 22.5489 83.095 22.5679 83.6904 22.6007C84.2341 22.6334 84.6345 22.6524 84.8934 22.6576C85.0367 22.6611 85.3974 22.6783 85.979 22.7146C86.4709 22.7353 86.8644 22.7439 87.1613 22.7387C88.0778 22.7353 88.6525 22.611 88.8838 22.3659C89.065 22.1899 89.1496 21.4667 89.1427 20.193C89.1358 18.9192 89.0219 18.1909 88.8009 18.0131C88.4765 17.7628 87.7464 17.6438 86.609 17.6558C86.2862 17.6679 85.8271 17.6852 85.2334 17.7093C84.6777 17.7456 84.31 17.7611 84.1288 17.7611C82.4823 17.7594 80.834 17.7594 79.1875 17.7594C77.6255 17.8975 76.4519 18.5361 75.6683 19.67C75.1143 20.4639 74.8208 21.6359 74.788 23.1909C74.776 23.6914 74.7846 24.3715 74.8139 25.2344C74.8554 26.2458 74.8778 26.9276 74.8795 27.2814C74.883 28.2134 74.8864 29.1437 74.8882 30.074C74.8364 30.2776 74.5913 30.5659 74.1529 30.9387C73.7387 31.2907 73.5385 31.5634 73.5523 31.7567C73.554 31.9828 73.7611 32.2659 74.1771 32.6059C74.6068 32.9822 74.8467 33.2859 74.9002 33.5138C74.8864 33.4672 74.8899 34.4785 74.9089 36.5462C74.9451 39.9429 76.6089 41.8138 79.8968 42.2729C81.4881 42.3885 83.0777 42.5214 84.6673 42.6698C84.8106 42.6837 85.1471 42.732 85.6804 42.82C86.2258 42.908 86.6677 42.9719 87.0042 43.0064C88.1071 43.122 88.7992 43.0427 89.0823 42.7527C89.2635 42.5715 89.3222 41.85 89.2635 40.5953C89.2152 39.3267 89.1668 38.657 89.1133 38.5811ZM107.027 40.8421C107.018 39.2197 107.008 37.5973 106.999 35.9749C106.973 35.8127 106.849 35.4744 106.626 34.9618C106.418 34.4906 106.312 34.1575 106.312 33.9608C106.311 33.6984 106.412 33.4154 106.618 33.1064C106.835 32.7612 106.956 32.4903 106.98 32.2952C106.961 28.9452 106.942 25.5952 106.923 22.2451C106.787 20.9748 106.297 19.9099 105.451 19.0659C104.607 18.2358 103.572 17.7715 102.343 17.6541C100.915 17.6541 99.4879 17.6541 98.0589 17.6541C95.3716 17.6541 93.9183 17.68 93.6991 17.7283C93.0795 17.8509 92.7136 18.2444 92.6014 18.9089C92.5756 19.0297 92.5686 19.7615 92.5756 21.1043C92.5894 23.2651 92.6014 25.4277 92.6153 27.5869C92.6273 29.5855 92.6084 30.666 92.5583 30.8316C92.5203 31.0111 92.2718 31.3201 91.8075 31.7585C91.395 32.152 91.1965 32.4678 91.2121 32.7095C91.2259 32.8665 91.4537 33.1772 91.8973 33.6467C92.2873 34.0626 92.5152 34.4026 92.5825 34.6632C92.636 34.8375 92.6705 36.365 92.6877 39.2473C92.6998 41.0026 92.6964 41.8138 92.6843 41.6792C92.7412 42.6284 92.9328 43.2222 93.2573 43.4586C93.6077 43.7365 94.4051 43.9384 95.6477 44.0799C96.8766 44.2077 97.6187 44.1783 97.8759 43.9816C98.1331 43.7969 98.2711 43.2826 98.2919 42.4368C98.3022 42.1521 98.3005 41.7655 98.285 41.277C98.2677 40.6143 98.2591 40.2259 98.2591 40.1137C98.2573 39.9774 98.2435 39.6443 98.2142 39.1179C98.1849 38.5915 98.1693 38.179 98.1676 37.8787C98.1486 36.8293 98.266 36.2252 98.5249 36.0664C98.7941 35.8955 99.305 35.8852 100.054 36.0457C100.765 36.1872 101.179 36.3426 101.297 36.51C101.388 36.6481 101.442 38.084 101.459 40.8179C101.461 40.9836 101.456 41.3702 101.447 41.9777C101.437 42.4593 101.44 42.8407 101.454 43.1238C101.497 43.9436 101.689 44.4959 102.025 44.7824C102.232 44.9584 103.007 45.1587 104.348 45.4037C105.612 45.6333 106.352 45.6868 106.569 45.5435C106.877 45.3537 107.048 44.7134 107.08 43.6243C107.091 43.2843 107.082 42.8079 107.053 42.1969C107.037 41.4565 107.029 41.0078 107.027 40.849V40.8421ZM101.259 30.502C100.9 30.9456 99.9505 30.88 98.4109 30.3415C98.2677 30.0567 98.1883 28.8468 98.1745 26.7153C98.1728 26.5651 98.1641 26.1837 98.1486 25.5727C98.1193 25.086 98.1175 24.7046 98.1417 24.4319C98.1745 23.6103 98.3851 23.1547 98.7717 23.0667C99.1462 22.9786 99.5967 22.9614 100.127 23.0149C100.708 23.0856 101.071 23.2168 101.214 23.4136C101.305 23.5309 101.357 24.7149 101.373 26.9673C101.374 27.1071 101.388 27.3936 101.416 27.8285C101.445 28.3014 101.459 28.6587 101.462 28.9003C101.481 29.7771 101.414 30.3121 101.26 30.5037L101.259 30.502ZM126.159 36.1475C126.133 36.0958 126.055 36.0095 125.929 35.8817C125.826 35.7747 125.75 35.6798 125.7 35.5952C125.251 34.9618 125.006 33.9038 124.968 32.4143C124.954 31.9276 124.954 31.2683 124.966 30.4364C125.004 29.4543 125.023 28.8278 125.023 28.5551C125.008 24.6562 125.008 22.7077 125.02 22.7094C124.605 18.6344 121.359 17.0863 115.291 17.8267C113.974 17.9941 112.911 18.4826 112.099 19.2799C111.264 20.1049 110.793 21.1578 110.682 22.4522C110.691 24.1454 110.7 25.8385 110.708 27.5317C110.724 30.7281 110.713 32.4109 110.675 32.5835C110.612 32.794 110.356 33.0892 109.907 33.4706C109.51 33.802 109.312 34.1403 109.314 34.4889C109.328 34.7046 109.561 35.0809 110.014 35.6246C110.391 36.0906 110.617 36.4806 110.696 36.7879C110.881 37.5973 110.929 38.569 110.846 39.6926C110.75 41.0043 110.727 41.8846 110.782 42.3419C110.917 43.5432 111.373 44.6305 112.148 45.6247C112.755 46.3927 113.534 46.9761 114.485 47.373C115.139 47.6613 116.281 47.9944 117.907 48.3913C118.938 48.6433 119.968 48.9039 120.997 49.1715C122.058 49.3009 122.969 48.9902 123.734 48.2118C124.486 47.4611 124.92 46.4635 125.034 45.2294C125.058 44.8428 125.032 43.8176 124.956 42.1659C124.89 40.8041 124.961 39.7582 125.165 39.0212C125.229 38.7589 125.479 38.4171 125.914 37.9891C126.287 37.6422 126.457 37.2556 126.433 36.8362C126.418 36.5738 126.328 36.3443 126.162 36.1475H126.159ZM119.633 27.4695C119.609 28.0477 119.597 28.424 119.597 28.5983C119.605 31.7809 119.612 34.9635 119.621 38.1462C119.628 40.6695 119.542 42.1245 119.364 42.5076C118.416 42.6509 117.467 42.4558 116.516 41.9501C116.335 41.4203 116.238 39.4993 116.226 36.1821C116.235 35.1258 116.223 33.5586 116.19 31.4806C116.157 29.2766 116.136 27.6749 116.135 26.6721C116.135 26.5738 116.126 26.3252 116.112 25.93C116.098 25.6193 116.098 25.3725 116.109 25.1896C116.133 24.6407 116.273 24.2248 116.53 23.9417C118.477 24.1937 119.379 24.2748 119.238 24.1644C119.523 24.3956 119.666 25.0498 119.668 26.1233C119.671 26.4564 119.659 26.9051 119.635 27.4678L119.633 27.4695ZM26.2685 52.8184L24.8135 52.5612C24.6116 52.5284 24.4563 52.4628 24.3492 52.3644C24.2422 52.2661 24.1887 52.1401 24.1887 51.9899V51.7C24.1887 51.5118 24.2647 51.3634 24.4166 51.2529C24.5684 51.1425 24.7704 51.0872 25.0206 51.0872H25.925C26.1494 51.0872 26.3323 51.1632 26.4721 51.3168C26.6119 51.4704 26.6844 51.6689 26.6844 51.9157H27.5957C27.5957 51.5878 27.5267 51.2995 27.3886 51.0476C27.2505 50.7956 27.0538 50.6005 26.8001 50.4642C26.5481 50.3278 26.2547 50.2588 25.925 50.2588H25.0206C24.6685 50.2588 24.3596 50.3175 24.0938 50.4314C23.828 50.5453 23.6209 50.7093 23.4742 50.9181C23.3275 51.1269 23.2533 51.3686 23.2533 51.6413V52.0848C23.2533 52.4335 23.3741 52.72 23.6174 52.9444C23.8608 53.1687 24.2077 53.3189 24.6616 53.3948L26.1166 53.6451C26.3237 53.6831 26.4842 53.7504 26.5964 53.847C26.7086 53.9437 26.7638 54.0645 26.7638 54.2095V54.5633C26.7638 54.7514 26.6827 54.9033 26.5239 55.0172C26.3651 55.1311 26.1528 55.1898 25.8922 55.1898H25.0051C24.7272 55.1898 24.5115 55.1018 24.3527 54.9275C24.1939 54.7531 24.118 54.515 24.118 54.2164H23.198C23.198 54.7738 23.3586 55.2122 23.6779 55.535C23.9972 55.8577 24.4355 56.0183 24.9896 56.0183H25.9095C26.2616 56.0183 26.5723 55.9596 26.8449 55.8405C27.1176 55.7214 27.3265 55.5574 27.4766 55.3469C27.6251 55.1346 27.701 54.8929 27.701 54.6185V54.0956C27.701 53.759 27.5785 53.4794 27.3282 53.2637C27.0779 53.0462 26.7241 52.896 26.2668 52.8149L26.2685 52.8184ZM32.6251 50.3261H32.2023L30.0276 55.9544H30.9941L31.5136 54.5633H33.7366L34.2475 55.9544H35.2226L33.224 50.7507C33.1136 50.4676 32.9133 50.3261 32.6251 50.3261ZM31.7794 53.7763L32.6268 51.4911H32.6355L33.4743 53.7763H31.7794ZM38.8143 50.3261H37.8789V55.2813C37.8789 55.4849 37.9393 55.6489 38.0618 55.7732C38.1844 55.8974 38.3518 55.9578 38.5658 55.9578H41.852V55.138H38.8126V50.3278L38.8143 50.3261ZM48.1913 50.5229C47.8789 50.3485 47.52 50.2622 47.1161 50.2622H46.2686C45.8648 50.2622 45.5058 50.3503 45.1968 50.5229C44.8879 50.6955 44.648 50.944 44.4771 51.2633C44.3063 51.5826 44.2217 51.9519 44.2217 52.3696V53.9143C44.2217 54.3337 44.3063 54.7014 44.4771 55.0207C44.648 55.34 44.8879 55.5868 45.1968 55.7611C45.5075 55.9354 45.8631 56.0217 46.2686 56.0217H47.1161C47.5217 56.0217 47.8789 55.9354 48.1913 55.7611C48.5037 55.5868 48.7454 55.34 48.9145 55.0207C49.0837 54.7014 49.17 54.332 49.17 53.9143V52.3696C49.17 51.9519 49.0837 51.5826 48.9145 51.2633C48.7454 50.944 48.502 50.6989 48.1913 50.5229ZM48.2345 53.8798C48.2345 54.2716 48.1309 54.5874 47.9221 54.8291C47.7133 55.0707 47.4457 55.1915 47.1144 55.1915H46.2756C45.9407 55.1915 45.6697 55.0707 45.4644 54.8291C45.259 54.5874 45.1571 54.2716 45.1571 53.8798V52.4007C45.1571 52.0089 45.2607 51.6931 45.4644 51.4514C45.668 51.2098 45.9407 51.089 46.2756 51.089H47.1144C47.4509 51.089 47.7202 51.2098 47.9273 51.4514C48.1344 51.6931 48.2345 52.0089 48.2345 52.4007V53.8798ZM55.8476 54.4442L53.0171 50.3278H52.1783V55.9561H53.0896V51.8553L55.9115 55.9561H56.7589V50.3278H55.8476V54.4442ZM68.4884 53.3016H67.6962C67.6651 53.6296 67.5926 53.9212 67.4804 54.1784L66.4897 53.0531L66.6416 52.9651C66.9454 52.7821 67.1801 52.6251 67.3441 52.4939C67.508 52.3627 67.6289 52.2315 67.6996 52.0986C67.7704 51.9675 67.8084 51.8139 67.8084 51.6361V51.4756C67.8084 51.1114 67.6875 50.818 67.4442 50.5954C67.2008 50.3727 66.8798 50.2622 66.4794 50.2622H66.1756C65.7441 50.2622 65.3972 50.3762 65.1366 50.604C64.876 50.8318 64.7448 51.1338 64.7448 51.5084V51.6758C64.7448 51.9813 64.8812 52.304 65.1521 52.6406L65.2729 52.7942C64.9795 52.972 64.7534 53.1187 64.5929 53.236C64.4324 53.3534 64.3013 53.5018 64.1977 53.6779C64.0941 53.8557 64.0424 54.0731 64.0424 54.3286V54.6341C64.0424 55.0638 64.1942 55.4021 64.498 55.6472C64.8018 55.8923 65.216 56.0165 65.7372 56.0165H66.0893C66.3672 56.0165 66.6313 55.9647 66.885 55.8629C67.1387 55.7611 67.3665 55.6161 67.5685 55.428L68.0241 55.9509H69.0476L68.0483 54.817C68.3106 54.3683 68.4573 53.8608 68.4901 53.2982L68.4884 53.3016ZM65.6026 51.5153C65.6026 51.3548 65.6544 51.2305 65.7545 51.1408C65.8546 51.051 65.9944 51.0079 66.1704 51.0079H66.4656C66.6088 51.0079 66.7279 51.051 66.8211 51.1356C66.9143 51.2201 66.9609 51.3341 66.9609 51.4721V51.6326C66.9609 51.7604 66.9126 51.8743 66.8125 51.9692C66.7124 52.0641 66.507 52.216 66.1929 52.4197L66.0496 52.5077L65.8667 52.2661C65.6906 52.0624 65.6026 51.8639 65.6026 51.6706V51.5118V51.5153ZM66.0979 55.2399H65.7217C65.4921 55.2399 65.3057 55.1812 65.1608 55.0673C65.0158 54.9533 64.945 54.7997 64.945 54.6133V54.3234C64.945 54.1249 65.0054 53.9627 65.1262 53.8367C65.2471 53.7107 65.4628 53.5588 65.7786 53.3827L67.0507 54.8394C66.7831 55.107 66.4656 55.2416 66.0997 55.2416L66.0979 55.2399ZM78.9407 52.8184L77.4857 52.5612C77.2838 52.5284 77.1284 52.4628 77.0214 52.3644C76.9144 52.2661 76.8609 52.1401 76.8609 51.9899V51.7C76.8609 51.5118 76.9368 51.3634 77.0887 51.2529C77.2406 51.1425 77.4408 51.0872 77.6928 51.0872H78.5972C78.8216 51.0872 79.0045 51.1632 79.146 51.3168C79.2876 51.4704 79.3583 51.6689 79.3583 51.9157H80.2696C80.2696 51.5878 80.2006 51.2995 80.0625 51.0476C79.9244 50.7956 79.7277 50.6005 79.474 50.4642C79.222 50.3278 78.9286 50.2588 78.5989 50.2588H77.6945C77.3424 50.2588 77.0335 50.3175 76.7677 50.4314C76.5019 50.5453 76.2948 50.7093 76.1481 50.9181C76.0014 51.1269 75.9272 51.3686 75.9272 51.6413V52.0848C75.9272 52.4335 76.048 52.72 76.2913 52.9444C76.5347 53.1687 76.8816 53.3189 77.3355 53.3948L78.7905 53.6451C78.9976 53.6831 79.1581 53.7504 79.2703 53.847C79.3825 53.9437 79.4377 54.0645 79.4377 54.2095V54.5633C79.4377 54.7514 79.3583 54.9033 79.1978 55.0172C79.0373 55.1311 78.8267 55.1898 78.5661 55.1898H77.679C77.4011 55.1898 77.1854 55.1018 77.0266 54.9275C76.8678 54.7531 76.7919 54.515 76.7919 54.2164H75.8719C75.8719 54.7738 76.0324 55.2122 76.3517 55.535C76.671 55.8577 77.1094 56.0183 77.6635 56.0183H78.5834C78.9355 56.0183 79.2461 55.9596 79.5188 55.8405C79.7915 55.7214 80.0004 55.5574 80.1505 55.3469C80.299 55.1346 80.3749 54.8929 80.3749 54.6185V54.0956C80.3749 53.759 80.2506 53.4794 80.0038 53.2637C79.7536 53.0462 79.3997 52.896 78.9424 52.8149L78.9407 52.8184ZM87.0077 52.7148H84.241V50.3261H83.3055V55.9544H84.241V53.5346H87.0077V55.9544H87.9345V50.3261H87.0077V52.7148ZM94.9125 50.5229C94.6001 50.3485 94.2411 50.2622 93.8372 50.2622H92.9898C92.5842 50.2622 92.2269 50.3503 91.918 50.5229C91.609 50.6955 91.3691 50.944 91.1983 51.2633C91.0274 51.5826 90.9428 51.9519 90.9428 52.3696V53.9143C90.9428 54.3337 91.0291 54.7014 91.1983 55.0207C91.3674 55.34 91.6073 55.5868 91.918 55.7611C92.2269 55.9354 92.5842 56.0217 92.9898 56.0217H93.8372C94.2428 56.0217 94.6001 55.9354 94.9125 55.7611C95.2249 55.5868 95.4648 55.34 95.6357 55.0207C95.8065 54.7014 95.8911 54.332 95.8911 53.9143V52.3696C95.8911 51.9519 95.8048 51.5826 95.6357 51.2633C95.4665 50.944 95.2231 50.6989 94.9125 50.5229ZM94.9556 53.8798C94.9556 54.2716 94.8521 54.5874 94.6432 54.8291C94.4344 55.0707 94.1669 55.1915 93.8355 55.1915H92.9967C92.6601 55.1915 92.3909 55.0707 92.1838 54.8291C91.9767 54.5874 91.8766 54.2716 91.8766 53.8798V52.4007C91.8766 52.0089 91.9801 51.6931 92.1838 51.4514C92.3874 51.2098 92.6601 51.089 92.9967 51.089H93.8355C94.1703 51.089 94.4413 51.2098 94.6467 51.4514C94.8521 51.6931 94.9539 52.0089 94.9539 52.4007L94.9556 53.8798ZM101.77 50.3261H98.8994V55.9544H99.8349V54.0576H101.697C102.187 54.0576 102.584 53.9195 102.885 53.6434C103.185 53.3672 103.337 53.0013 103.337 52.5457V51.7724C103.337 51.3375 103.194 50.9871 102.905 50.7231C102.619 50.4573 102.237 50.3261 101.77 50.3261ZM102.401 52.5129C102.401 52.7286 102.336 52.9029 102.206 53.0358C102.077 53.1687 101.901 53.236 101.683 53.236H99.8366V51.1442H101.756C101.953 51.1442 102.11 51.2029 102.227 51.322C102.344 51.4411 102.403 51.5981 102.403 51.7966V52.5111L102.401 52.5129ZM48.433 12.6731C54.6394 12.5488 56.179 9.54566 58.0223 9.01234C60.7372 8.22704 61.5587 9.26088 63.2657 7.72479C64.9744 9.25915 65.7942 8.22532 68.5091 9.01234C70.3541 9.54566 71.8919 12.5488 78.0984 12.6731C80.8116 12.7283 82.8499 10.7176 82.9862 8.26501C83.1312 5.63986 81.6935 3.80864 79.5309 3.78793C78.2002 3.77585 77.2958 4.61293 77.5098 5.83489C77.5098 5.83489 77.9258 4.92878 79.0839 4.98228C79.6448 5.00817 80.2092 5.69509 80.2075 6.32679C80.204 7.25879 79.7139 8.49111 78.0725 8.43415C75.5388 8.34613 75.0038 7.37788 70.7355 3.44965C66.9661 -0.0177608 63.925 2.40373 63.2657 3.01644C62.6064 2.40373 59.5653 -0.0177608 55.7958 3.44965C51.5276 7.37616 50.9925 8.34613 48.4589 8.43415C46.8175 8.48939 46.3273 7.25879 46.3239 6.32679C46.3222 5.69509 46.8865 5.00644 47.4475 4.98228C48.6056 4.92878 49.0215 5.83489 49.0215 5.83489C49.2338 4.61293 48.3311 3.77585 47.0004 3.78793C44.8378 3.80864 43.4001 5.64159 43.5451 8.26674C43.6815 10.7193 45.7198 12.7266 48.433 12.6731ZM67.9205 2.65226C70.6458 3.1269 73.7559 9.54393 78.5851 9.41794C78.5851 9.41794 76.098 10.5864 73.0086 7.62469C69.9192 4.66298 67.9913 1.95326 64.3927 3.52041C64.3927 3.52041 65.3092 2.19662 67.9205 2.65226ZM58.6126 2.65226C61.2239 2.19662 62.1421 3.52041 62.1421 3.52041C58.5435 1.95153 56.6174 4.66298 53.5262 7.62469C50.4351 10.5864 47.9497 9.41794 47.9497 9.41794C52.7789 9.54393 55.8856 3.1269 58.6126 2.65226ZM90.7512 7.39341H93.6974C93.8062 7.39341 93.8631 7.33818 93.8631 7.22945V5.97124C93.8631 5.86251 93.8062 5.80555 93.6974 5.80555H92.9138C92.8051 5.80555 92.7482 5.86423 92.7482 5.97124V6.3078H91.8645C91.7592 6.3078 91.7022 6.24912 91.7022 6.14384V5.42757C91.7022 5.3361 91.735 5.27914 91.8161 5.22909L93.6439 4.24013C93.7992 4.15728 93.8648 4.0917 93.8648 3.93464V1.9895C93.8648 1.21628 93.4472 0.803786 92.686 0.803786H91.7678C90.9981 0.803786 90.589 1.21628 90.589 1.9895V2.86283C90.589 2.94567 90.6304 2.99573 90.7202 2.99573H91.5711C91.6539 2.99573 91.7022 2.94567 91.7022 2.86283V2.21905C91.7022 2.00504 91.8075 1.89113 92.0302 1.89113H92.4237C92.6291 1.89113 92.7516 2.00676 92.7516 2.21905V3.43757L90.803 4.49384C90.6477 4.57496 90.5907 4.64227 90.5907 4.79761V7.226C90.5873 7.33473 90.646 7.39341 90.7512 7.39341ZM98.48 7.39341H99.3982C100.166 7.39341 100.577 6.98437 100.577 6.21115V1.99296C100.577 1.21974 100.168 0.807237 99.3982 0.807237H98.48C97.7102 0.807237 97.3012 1.21974 97.3012 1.99296V6.21115C97.2995 6.98437 97.7102 7.39341 98.48 7.39341ZM98.3902 2.19834C98.3902 1.9826 98.5042 1.86869 98.7182 1.86869H99.1928C99.4068 1.86869 99.5207 1.98433 99.5207 2.19834V6.00403C99.5207 6.22668 99.4051 6.33369 99.1928 6.33369H98.7182C98.5059 6.33369 98.3902 6.22668 98.3902 6.00403V2.19834ZM104.107 2.12413L104.614 2.06027V7.26397C104.614 7.34509 104.655 7.39514 104.745 7.39514H105.594C105.677 7.39514 105.725 7.34681 105.725 7.26397V0.938409C105.725 0.855564 105.677 0.807237 105.594 0.807237L104.089 1.01435C103.984 1.02125 103.934 1.07994 103.934 1.18694V1.97742C103.934 2.08271 104.001 2.14139 104.107 2.12413ZM110.688 7.39341H111.599C112.37 7.39341 112.788 6.98092 112.788 6.20597V4.68714C112.788 4.38165 112.567 4.15038 112.272 4.10033V4.08479C112.567 4.03301 112.788 3.80346 112.788 3.49797V1.97742C112.788 1.20248 112.37 0.789978 111.599 0.789978H110.688C109.916 0.789978 109.498 1.20248 109.498 1.97742V3.49797C109.498 3.80346 109.719 4.03474 110.014 4.08479V4.10033C109.718 4.14865 109.498 4.38165 109.498 4.68714V6.20597C109.498 6.98092 109.916 7.39341 110.688 7.39341ZM110.587 2.2087C110.587 1.99296 110.696 1.87904 110.915 1.87904H111.368C111.59 1.87904 111.695 1.99468 111.695 2.2087V3.22528C111.695 3.43066 111.58 3.54803 111.368 3.54803H110.915C110.703 3.54803 110.587 3.43239 110.587 3.22528V2.2087ZM110.587 4.96675C110.587 4.751 110.696 4.63709 110.915 4.63709H111.368C111.59 4.63709 111.695 4.75273 111.695 4.96675V5.97469C111.695 6.19734 111.58 6.30607 111.368 6.30607H110.915C110.703 6.30607 110.587 6.19907 110.587 5.97469V4.96675ZM114.906 9.95643H88.4696V10.9661H114.906V9.95643ZM16.9087 7.39341H19.9205C20.0189 7.39341 20.0517 7.34509 20.0517 7.26224V6.4407C20.0517 6.34922 20.0189 6.3078 19.9205 6.3078H17.8735V4.644H19.4372C19.5183 4.644 19.5684 4.59567 19.5684 4.5042V3.69128C19.5684 3.5998 19.5183 3.55148 19.4372 3.55148H17.8735V1.90321H19.9205C20.0189 1.90321 20.0517 1.84453 20.0517 1.76341V0.941861C20.0517 0.859016 20.0189 0.810689 19.9205 0.810689H16.9087C16.8345 0.810689 16.7862 0.859016 16.7862 0.941861V7.2657C16.7862 7.34681 16.8362 7.39687 16.9087 7.39687V7.39341ZM24.4235 7.39341H25.3417C26.1097 7.39341 26.5205 6.98437 26.5205 6.21115V4.30744C26.5205 4.15038 26.4463 4.06063 26.3082 4.00195L24.3596 3.35817V2.22078C24.3596 2.00676 24.4821 1.89285 24.6875 1.89285H25.0793C25.3002 1.89285 25.4072 2.00849 25.4072 2.22078V2.86455C25.4072 2.9474 25.4556 2.99745 25.5384 2.99745H26.3893C26.479 2.99745 26.5205 2.9474 26.5205 2.86455V1.99123C26.5205 1.21801 26.1114 0.805511 25.3417 0.805511H24.4235C23.6623 0.805511 23.2446 1.21801 23.2446 1.99123V3.93636C23.2446 4.0917 23.3189 4.1918 23.4656 4.24185L25.4072 4.88563V5.97987C25.4072 6.20424 25.2933 6.30953 25.0793 6.30953H24.6875C24.4821 6.30953 24.3596 6.20252 24.3596 5.97987V5.34645C24.3596 5.2567 24.3182 5.21356 24.2284 5.21356H23.3775C23.2947 5.21356 23.2464 5.25498 23.2464 5.34645V6.21287C23.2464 6.98609 23.6623 7.39514 24.4252 7.39514L24.4235 7.39341ZM29.7652 1.89285H30.7145V7.26224C30.7145 7.35372 30.7628 7.39341 30.8457 7.39341H31.6966C31.7863 7.39341 31.8277 7.35372 31.8277 7.26224V1.89285H32.7787C32.8685 1.89285 32.9099 1.8428 32.9099 1.75995V0.938409C32.9099 0.855564 32.8685 0.807237 32.7787 0.807237H29.767C29.6841 0.807237 29.6358 0.855564 29.6358 0.938409V1.75995C29.6358 1.8428 29.6824 1.89285 29.7652 1.89285ZM38.0653 9.95643H11.6291V10.9661H38.0653V9.95643Z"
                fill="white" />
        </g>
    </g>
    <defs>
        <clipPath id="clip0_2_143">
            <rect width="126" height="55.23" fill="white" transform="translate(0.0999756 0.789978)" />
        </clipPath>
        <clipPath id="clip1_2_143">
            <rect width="125.993" height="55.23" fill="white" transform="translate(0.103271 0.789978)" />
        </clipPath>
    </defs>
</svg>