<svg width="65" height="65" viewBox="0 0 65 65" fill="none" xmlns="http://www.w3.org/2000/svg">
<path d="M56.3162 45.2348C51.1587 44.2971 46.1717 42.8053 41.3551 40.7593C36.5386 38.7134 32.0418 36.1985 27.8646 33.2149L29.2073 31.6165C30.1876 30.5509 30.9336 29.741 31.4451 29.1869L36.7517 34.2378C36.9649 34.4083 37.1993 34.4936 37.455 34.4936H37.5829C37.8387 34.4936 38.0731 34.4083 38.2862 34.2378L42.1863 29.6984C42.3142 29.5705 42.3888 29.4 42.4101 29.1869C42.4314 28.9738 42.3781 28.782 42.2502 28.6115L41.0355 26.6934L43.4011 27.5245C43.8273 27.6098 44.147 27.5459 44.3601 27.3327C49.5603 21.9195 55.2719 16.9751 61.495 12.4996C61.7081 12.3291 61.836 12.116 61.8786 11.8602C61.9212 11.6045 61.8573 11.37 61.6868 11.1569C60.2376 9.06834 58.1277 6.10597 55.3571 2.2698C54.9735 1.71569 54.4727 1.24683 53.8546 0.863209C53.2366 0.479595 52.5866 0.245163 51.9046 0.159912C50.498 -0.0532074 49.198 0.287785 48.0045 1.18289C41.7388 5.91416 35.814 11.2848 30.2303 17.2948C30.0598 17.4653 29.9852 17.6891 30.0065 17.9661C30.0278 18.2432 30.1344 18.4669 30.3262 18.6374C30.518 18.8079 30.7524 18.8825 31.0295 18.8612C31.3065 18.8399 31.5516 18.7227 31.7647 18.5096C37.1354 12.7127 42.9322 7.406 49.1553 2.58949C49.9226 2.16324 50.7537 1.99275 51.6488 2.078C52.544 2.16324 53.2472 2.58949 53.7587 3.35672C54.3981 4.25182 55.3678 5.58382 56.6678 7.35272C57.9679 9.12162 58.9376 10.4536 59.5769 11.3487C53.78 15.5685 48.4094 20.2571 43.465 25.4147L39.0534 23.8163C38.6272 23.6884 38.2649 23.7736 37.9665 24.072C37.8387 24.2425 37.7641 24.4343 37.7428 24.6474C37.7214 24.8605 37.7534 25.0524 37.8387 25.2229L40.1404 28.8033C39.501 29.5279 38.5846 30.6148 37.3911 32.064V32.1279L32.6598 27.7164C35.1747 24.7327 38.1477 21.5146 41.5789 18.062C45.0102 14.6095 48.2176 11.5832 51.2013 8.98309L52.6079 10.7094C52.7358 10.8799 52.9489 10.9758 53.2472 10.9971C53.5456 11.0184 53.7907 10.9545 53.9825 10.8053C54.1743 10.6561 54.2809 10.4536 54.3022 10.1979C54.3235 9.94213 54.2489 9.7077 54.0784 9.49458L51.9685 7.06501C51.8407 6.89451 51.6275 6.79861 51.3292 6.7773C51.0308 6.75599 50.7751 6.83058 50.5619 7.00107C47.3651 9.68639 43.8806 12.9365 40.1084 16.7513C36.3362 20.5662 33.15 24.0507 30.5499 27.2049C29.5696 28.2705 28.163 29.8476 26.3302 31.9361L26.2662 32.0001C26.0105 31.8296 25.6375 31.5525 25.1474 31.1689C24.6572 30.7853 24.2842 30.5082 24.0285 30.3377C23.517 29.9115 23.0481 29.5705 22.6219 29.3148C24.8383 26.4589 26.9056 23.9228 28.8237 21.7064C28.9942 21.4932 29.0688 21.2588 29.0474 21.0031C29.0261 20.7473 28.9196 20.5449 28.7278 20.3957C28.536 20.2465 28.3015 20.1719 28.0245 20.1719C27.7474 20.1719 27.5236 20.2785 27.3531 20.4916C25.0514 23.0916 22.835 25.7983 20.7038 28.6115C19.0841 28.1 17.4217 28.0467 15.7168 28.4516C14.0118 28.8565 12.5413 29.6771 11.3052 30.9132L11.2413 31.041C10.2609 31.9788 9.51498 33.0657 9.00349 34.3018C8.49201 35.5379 8.25757 36.8166 8.3002 38.1379C8.3002 38.9052 8.47069 39.7363 8.81169 40.6314C6.33949 42.5921 4.08042 44.0627 2.03446 45.043C1.43773 45.2988 0.990174 45.693 0.691806 46.2258C0.393437 46.7586 0.297533 47.3234 0.404093 47.9202C0.510653 48.5169 0.766398 49.0284 1.17133 49.4546C1.57625 49.8809 2.0984 50.1366 2.73776 50.2219H4.20829C7.14935 50.2219 10.4314 49.0284 14.0544 46.6414C20.0218 51.3301 26.6285 55.2089 33.8746 58.2778C34.1304 58.363 34.3861 58.363 34.6419 58.2778C34.8976 58.1925 35.0681 58.022 35.1533 57.7663C35.2386 57.5106 35.2386 57.2655 35.1533 57.031C35.0681 56.7966 34.8976 56.6368 34.6419 56.5515C30.4221 54.7613 26.5859 52.8006 23.1334 50.6694C23.517 50.712 24.1563 50.7333 25.0514 50.7333C26.5433 50.7333 28.2056 50.5415 30.0385 50.1579C31.1893 49.9022 32.9369 49.4546 35.2812 48.8153C37.8813 48.0906 39.8846 47.5792 41.2912 47.2808C43.6355 46.8119 45.8946 46.5349 48.0684 46.4496C50.6685 46.3644 53.3112 46.5562 55.9965 47.025C57.9146 47.366 59.4704 48.3038 60.6638 49.8382C61.8573 51.3727 62.3688 53.1203 62.1983 55.081V55.2728C62.113 56.3384 61.8147 57.3401 61.3032 58.2778C60.7917 59.2155 60.1204 60.0041 59.2892 60.6434C58.458 61.2828 57.5097 61.7303 56.4441 61.9861C55.3785 62.2418 54.3342 62.2631 53.3112 62.05C48.1537 61.1549 43.1454 59.7909 38.2862 57.9581C38.0305 57.8729 37.7854 57.8835 37.5509 57.9901C37.3165 58.0966 37.1567 58.2778 37.0714 58.5335C36.9862 58.7893 36.9968 59.0344 37.1034 59.2688C37.21 59.5032 37.3911 59.6631 37.6469 59.7483C42.7191 61.6664 47.8553 63.073 53.0554 63.9681H53.3112C53.9505 64.096 54.4407 64.1599 54.7817 64.1599C56.9129 64.1599 58.8523 63.4992 60.5999 62.1779C61.6655 61.368 62.5286 60.3664 63.1893 59.1729C63.85 57.9794 64.2229 56.7007 64.3082 55.3367V55.1449C64.3508 53.6105 64.0311 52.1293 63.3491 50.7014C62.6672 49.2735 61.7081 48.08 60.472 47.121C59.2359 46.1619 57.8506 45.5332 56.3162 45.2348ZM3.12138 48.3677C2.82301 48.2825 2.58858 48.0693 2.41808 47.7283V47.6644C2.41808 47.1955 2.58858 46.8759 2.92957 46.7054C5.18864 45.6398 7.44772 44.2119 9.70679 42.4217C10.3035 43.402 11.0494 44.2332 11.9446 44.9152C11.9872 44.9578 12.0618 45.0324 12.1683 45.1389C12.2749 45.2455 12.3495 45.2988 12.3921 45.2988C8.81169 47.6431 5.72144 48.6448 3.12138 48.3038V48.3677ZM34.6419 47.025C31.8713 47.7923 29.8253 48.2825 28.504 48.4956C26.3728 48.8792 24.4547 48.9431 22.7497 48.6874C20.7464 48.389 18.7644 47.6431 16.8037 46.4496C15.9512 45.8103 14.7151 44.8299 13.0954 43.5086C12.2429 42.8266 11.5822 42.0061 11.1134 41.047C10.6445 40.088 10.3994 39.0757 10.3781 38.0101C10.3568 36.9445 10.5486 35.9108 10.9535 34.9092C11.3585 33.9075 11.9446 33.0444 12.7118 32.3198L12.8397 32.1919C14.2463 30.8705 15.9086 30.1672 17.8267 30.082C19.7448 29.9967 21.4497 30.5722 22.9416 31.8083C30.1024 37.6478 37.9452 41.9528 46.47 44.7233C44.4241 44.8512 42.3355 45.1496 40.2043 45.6185C38.7125 45.9168 36.8583 46.3857 34.6419 47.025ZM17.9545 33.4067C16.8889 33.4067 15.9619 33.7796 15.1733 34.5255C14.3848 35.2715 13.9905 36.1666 13.9905 37.2109C13.9905 38.2552 14.3741 39.1503 15.1414 39.8962C15.9086 40.6421 16.825 41.0151 17.8906 41.0151C18.9562 41.0151 19.8833 40.6421 20.6718 39.8962C21.4604 39.1503 21.8546 38.2552 21.8546 37.2109C21.8546 36.1666 21.4604 35.2715 20.6718 34.5255C19.8833 33.7796 18.9775 33.4067 17.9545 33.4067ZM17.9545 39.2248C17.4004 39.2248 16.9209 39.033 16.516 38.6494C16.1111 38.2658 15.9086 37.8183 15.9086 37.3068C15.9086 36.7953 16.1111 36.3477 16.516 35.9641C16.9209 35.5805 17.3898 35.3887 17.9226 35.3887C18.4554 35.3887 18.9242 35.5805 19.3292 35.9641C19.7341 36.3477 19.9366 36.7953 19.9366 37.3068C19.9366 37.8183 19.7341 38.2658 19.3292 38.6494C18.9242 39.033 18.466 39.2248 17.9545 39.2248ZM54.2063 50.9251C53.9505 50.9251 53.7161 51.0211 53.503 51.2129C53.2899 51.4047 53.1833 51.6498 53.1833 51.9481V53.8662H51.2013C50.9029 53.8662 50.6578 53.9621 50.466 54.1539C50.2742 54.3457 50.1783 54.5695 50.1783 54.8252C50.1783 55.081 50.2742 55.3154 50.466 55.5285C50.6578 55.7417 50.9029 55.8482 51.2013 55.8482H53.1833V57.7663C53.1833 58.022 53.2792 58.2458 53.471 58.4376C53.6628 58.6294 53.8973 58.7253 54.1743 58.7253C54.4514 58.7253 54.6858 58.6401 54.8776 58.4696C55.0694 58.2991 55.1653 58.0647 55.1653 57.7663V55.8482H57.2113C57.467 55.8482 57.6908 55.7523 57.8826 55.5605C58.0744 55.3687 58.1703 55.1343 58.1703 54.8572C58.1703 54.5802 58.0744 54.3457 57.8826 54.1539C57.6908 53.9621 57.467 53.8662 57.2113 53.8662H55.1653V51.9481C55.1227 51.6498 55.0161 51.4047 54.8456 51.2129C54.6752 51.0211 54.462 50.9251 54.2063 50.9251Z" fill="#DCA44E"/>
</svg>
