<svg width="75" height="65" viewBox="0 0 75 65" fill="none" xmlns="http://www.w3.org/2000/svg">
<path d="M74.9985 11.893C74.9985 10.3159 74.4337 8.97328 73.3042 7.86506C72.1747 6.75683 70.8427 6.20272 69.3082 6.20272H67.6459C66.495 4.62563 65.0032 3.37888 63.1703 2.46246C61.3375 1.54604 59.3768 1.08783 57.2882 1.08783H24.3612C22.3578 1.08783 20.4397 1.54604 18.6069 2.46246C16.7741 3.37888 15.2396 4.62563 14.0035 6.20272H6.20331C5.18033 6.1601 4.23195 6.39453 3.35816 6.90602C2.48436 7.4175 1.79172 8.1208 1.28023 9.01591C0.768745 9.91101 0.513 10.8701 0.513 11.893C0.513 13.4701 1.06711 14.8128 2.17534 15.921C3.28356 17.0292 4.62622 17.5833 6.20331 17.5833H11.1903V47.1857C11.1903 47.4841 11.2969 47.7505 11.51 47.9849C11.7231 48.2194 11.9789 48.3366 12.2772 48.3366C12.5756 48.3366 12.8207 48.23 13.0125 48.0169C13.2043 47.8038 13.3002 47.5267 13.3002 47.1857V17.5833H29.8597V48.7841C29.8597 49.0825 29.9556 49.3489 30.1474 49.5833C30.3392 49.8178 30.5843 49.935 30.8826 49.935H54.4111V62.8501H13.4281V51.7252C13.4281 51.4268 13.3215 51.1498 13.1084 50.894C12.8953 50.6383 12.6502 50.5104 12.3731 50.5104C12.0961 50.5104 11.851 50.617 11.6379 50.8301C11.4248 51.0432 11.3182 51.3416 11.3182 51.7252V63.8091C11.3182 64.1075 11.4248 64.3739 11.6379 64.6083C11.851 64.8427 12.1067 64.96 12.4051 64.96H55.6898C55.9882 64.96 56.2333 64.8534 56.4251 64.6403C56.6169 64.4272 56.7128 64.1501 56.7128 63.8091V49.8071H69.1803C69.4787 49.8071 69.7238 49.7006 69.9156 49.4874C70.1074 49.2743 70.2033 48.9973 70.2033 48.6563V17.4555C71.6099 17.2423 72.7607 16.6136 73.6559 15.5694C74.551 14.5251 74.9985 13.2996 74.9985 11.893ZM24.3612 3.19772H57.4161C59.3768 3.19772 61.1777 3.67725 62.8187 4.63629C64.4597 5.59533 65.7704 6.90602 66.7508 8.56836C67.7311 10.2307 68.2213 12.0422 68.2213 14.0029V31.2017H60.6768C60.3785 31.2017 60.1334 31.3083 59.9416 31.5214C59.7498 31.7345 59.6539 32.0009 59.6539 32.3206C59.6539 32.6403 59.7498 32.928 59.9416 33.1837C60.1334 33.4395 60.3785 33.5674 60.6768 33.5674H68.2213V36.8281H32.1614V33.5674H56.1374C56.4357 33.5674 56.6808 33.4501 56.8726 33.2157C57.0644 32.9813 57.1604 32.7042 57.1604 32.3845C57.1604 32.0649 57.0644 31.7878 56.8726 31.5534C56.6808 31.3189 56.4357 31.2017 56.1374 31.2017H32.1614V14.0029C32.1614 12.5963 31.8097 11.2856 31.1064 10.0709C30.4031 8.85607 29.4441 7.88637 28.2293 7.16176C27.0145 6.43715 25.6825 6.07485 24.2333 6.07485H16.8167C17.8397 5.13712 19.0012 4.42316 20.3012 3.93299C21.6012 3.44281 22.9546 3.19772 24.3612 3.19772ZM2.75076 11.893C2.75076 10.9127 3.0811 10.0815 3.74177 9.39952C4.40244 8.71754 5.22296 8.37654 6.20331 8.37654C7.18366 8.37654 8.01483 8.7282 8.69682 9.43149C9.3788 10.1348 9.71979 10.966 9.71979 11.925C9.71979 12.884 9.36814 13.7046 8.66485 14.3865C7.96155 15.0685 7.13038 15.4095 6.17134 15.4095C5.2123 15.4095 4.40244 15.0579 3.74177 14.3546C3.0811 13.6513 2.75076 12.8308 2.75076 11.893ZM10.7428 15.4095C11.51 14.3439 11.8936 13.1717 11.8936 11.893C11.8936 10.6143 11.51 9.46346 10.7428 8.44048H24.3612C25.9382 8.44048 27.2809 8.99459 28.3891 10.1028C29.4973 11.211 30.0515 12.5537 30.0515 14.1308V15.4095H10.7428ZM32.1614 47.6333V38.874H68.0934V47.6333H32.1614ZM70.3312 15.1538V14.0029C70.3312 12.0422 69.9049 10.1454 69.0525 8.31261H69.3082C70.2459 8.31261 71.0558 8.6536 71.7378 9.33559C72.4198 10.0176 72.7607 10.8274 72.7607 11.7652C72.7607 12.575 72.537 13.2783 72.0894 13.875C71.6419 14.4718 71.0558 14.898 70.3312 15.1538Z" fill="#DCA44E"/>
</svg>
